<svg xmlns="http://www.w3.org/2000/svg" viewBox="0 0 1510.00 722.50">
  <style>
    .key-bg { fill: #f5f5f5; stroke: #d4d4d4; stroke-width: 1; }
    .key-index { fill: #171717; font-family: ui-monospace, SFMono-Regular, "SF Mono", Menlo, Consolas, "Liberation Mono", monospace; font-weight: 700; text-anchor: middle; dominant-baseline: central; }
    .key-part { font-family: system-ui, -apple-system, BlinkMacSystemFont, "Segoe UI", Roboto, sans-serif; text-anchor: middle; dominant-baseline: central; }
    @media (prefers-color-scheme: dark) {
      .key-bg { fill: #2a2a2a; stroke: #404040; }
      .key-index { fill: #e5e5e5; }
    }
    .key-bg.part-0 { stroke: #f59e0b; }
    .key-part.part-0 { fill: #f59e0b; }
    .key-bg.part-1 { stroke: #14b8a6; }
    .key-part.part-1 { fill: #14b8a6; }
  </style>
  <g>
    <path class="key-bg part-0" d="M 26.00,74.50 L 84.00,74.50 Q 88.00,74.50 88.00,78.50 L 88.00,136.50 Q 88.00,140.50 84.00,140.50 L 26.00,140.50 Q 22.00,140.50 22.00,136.50 L 22.00,78.50 Q 22.00,74.50 26.00,74.50 Z" />
    <path class="key-bg part-0" d="M 96.00,74.50 L 154.00,74.50 Q 158.00,74.50 158.00,78.50 L 158.00,136.50 Q 158.00,140.50 154.00,140.50 L 96.00,140.50 Q 92.00,140.50 92.00,136.50 L 92.00,78.50 Q 92.00,74.50 96.00,74.50 Z" />
    <path class="key-bg part-0" d="M 166.00,74.50 L 224.00,74.50 Q 228.00,74.50 228.00,78.50 L 228.00,136.50 Q 228.00,140.50 224.00,140.50 L 166.00,140.50 Q 162.00,140.50 162.00,136.50 L 162.00,78.50 Q 162.00,74.50 166.00,74.50 Z" />
    <path class="key-bg part-0" d="M 236.00,39.50 L 294.00,39.50 Q 298.00,39.50 298.00,43.50 L 298.00,101.50 Q 298.00,105.50 294.00,105.50 L 236.00,105.50 Q 232.00,105.50 232.00,101.50 L 232.00,43.50 Q 232.00,39.50 236.00,39.50 Z" />
    <path class="key-bg part-0" d="M 306.00,22.00 L 364.00,22.00 Q 368.00,22.00 368.00,26.00 L 368.00,84.00 Q 368.00,88.00 364.00,88.00 L 306.00,88.00 Q 302.00,88.00 302.00,84.00 L 302.00,26.00 Q 302.00,22.00 306.00,22.00 Z" />
    <path class="key-bg part-0" d="M 376.00,39.50 L 434.00,39.50 Q 438.00,39.50 438.00,43.50 L 438.00,101.50 Q 438.00,105.50 434.00,105.50 L 376.00,105.50 Q 372.00,105.50 372.00,101.50 L 372.00,43.50 Q 372.00,39.50 376.00,39.50 Z" />
    <path class="key-bg part-0" d="M 446.00,39.50 L 504.00,39.50 Q 508.00,39.50 508.00,43.50 L 508.00,101.50 Q 508.00,105.50 504.00,105.50 L 446.00,105.50 Q 442.00,105.50 442.00,101.50 L 442.00,43.50 Q 442.00,39.50 446.00,39.50 Z" />
    <path class="key-bg part-1" d="M 1006.00,39.50 L 1064.00,39.50 Q 1068.00,39.50 1068.00,43.50 L 1068.00,101.50 Q 1068.00,105.50 1064.00,105.50 L 1006.00,105.50 Q 1002.00,105.50 1002.00,101.50 L 1002.00,43.50 Q 1002.00,39.50 1006.00,39.50 Z" />
    <path class="key-bg part-1" d="M 1076.00,39.50 L 1134.00,39.50 Q 1138.00,39.50 1138.00,43.50 L 1138.00,101.50 Q 1138.00,105.50 1134.00,105.50 L 1076.00,105.50 Q 1072.00,105.50 1072.00,101.50 L 1072.00,43.50 Q 1072.00,39.50 1076.00,39.50 Z" />
    <path class="key-bg part-1" d="M 1146.00,22.00 L 1204.00,22.00 Q 1208.00,22.00 1208.00,26.00 L 1208.00,84.00 Q 1208.00,88.00 1204.00,88.00 L 1146.00,88.00 Q 1142.00,88.00 1142.00,84.00 L 1142.00,26.00 Q 1142.00,22.00 1146.00,22.00 Z" />
    <path class="key-bg part-1" d="M 1216.00,39.50 L 1274.00,39.50 Q 1278.00,39.50 1278.00,43.50 L 1278.00,101.50 Q 1278.00,105.50 1274.00,105.50 L 1216.00,105.50 Q 1212.00,105.50 1212.00,101.50 L 1212.00,43.50 Q 1212.00,39.50 1216.00,39.50 Z" />
    <path class="key-bg part-1" d="M 1286.00,74.50 L 1344.00,74.50 Q 1348.00,74.50 1348.00,78.50 L 1348.00,136.50 Q 1348.00,140.50 1344.00,140.50 L 1286.00,140.50 Q 1282.00,140.50 1282.00,136.50 L 1282.00,78.50 Q 1282.00,74.50 1286.00,74.50 Z" />
    <path class="key-bg part-1" d="M 1356.00,74.50 L 1414.00,74.50 Q 1418.00,74.50 1418.00,78.50 L 1418.00,136.50 Q 1418.00,140.50 1414.00,140.50 L 1356.00,140.50 Q 1352.00,140.50 1352.00,136.50 L 1352.00,78.50 Q 1352.00,74.50 1356.00,74.50 Z" />
    <path class="key-bg part-1" d="M 1426.00,74.50 L 1484.00,74.50 Q 1488.00,74.50 1488.00,78.50 L 1488.00,136.50 Q 1488.00,140.50 1484.00,140.50 L 1426.00,140.50 Q 1422.00,140.50 1422.00,136.50 L 1422.00,78.50 Q 1422.00,74.50 1426.00,74.50 Z" />
    <path class="key-bg part-0" d="M 26.00,144.50 L 84.00,144.50 Q 88.00,144.50 88.00,148.50 L 88.00,206.50 Q 88.00,210.50 84.00,210.50 L 26.00,210.50 Q 22.00,210.50 22.00,206.50 L 22.00,148.50 Q 22.00,144.50 26.00,144.50 Z" />
    <path class="key-bg part-0" d="M 96.00,144.50 L 154.00,144.50 Q 158.00,144.50 158.00,148.50 L 158.00,206.50 Q 158.00,210.50 154.00,210.50 L 96.00,210.50 Q 92.00,210.50 92.00,206.50 L 92.00,148.50 Q 92.00,144.50 96.00,144.50 Z" />
    <path class="key-bg part-0" d="M 166.00,144.50 L 224.00,144.50 Q 228.00,144.50 228.00,148.50 L 228.00,206.50 Q 228.00,210.50 224.00,210.50 L 166.00,210.50 Q 162.00,210.50 162.00,206.50 L 162.00,148.50 Q 162.00,144.50 166.00,144.50 Z" />
    <path class="key-bg part-0" d="M 236.00,109.50 L 294.00,109.50 Q 298.00,109.50 298.00,113.50 L 298.00,171.50 Q 298.00,175.50 294.00,175.50 L 236.00,175.50 Q 232.00,175.50 232.00,171.50 L 232.00,113.50 Q 232.00,109.50 236.00,109.50 Z" />
    <path class="key-bg part-0" d="M 306.00,92.00 L 364.00,92.00 Q 368.00,92.00 368.00,96.00 L 368.00,154.00 Q 368.00,158.00 364.00,158.00 L 306.00,158.00 Q 302.00,158.00 302.00,154.00 L 302.00,96.00 Q 302.00,92.00 306.00,92.00 Z" />
    <path class="key-bg part-0" d="M 376.00,109.50 L 434.00,109.50 Q 438.00,109.50 438.00,113.50 L 438.00,171.50 Q 438.00,175.50 434.00,175.50 L 376.00,175.50 Q 372.00,175.50 372.00,171.50 L 372.00,113.50 Q 372.00,109.50 376.00,109.50 Z" />
    <path class="key-bg part-0" d="M 446.00,109.50 L 504.00,109.50 Q 508.00,109.50 508.00,113.50 L 508.00,171.50 Q 508.00,175.50 504.00,175.50 L 446.00,175.50 Q 442.00,175.50 442.00,171.50 L 442.00,113.50 Q 442.00,109.50 446.00,109.50 Z" />
    <path class="key-bg part-1" d="M 1006.00,109.50 L 1064.00,109.50 Q 1068.00,109.50 1068.00,113.50 L 1068.00,171.50 Q 1068.00,175.50 1064.00,175.50 L 1006.00,175.50 Q 1002.00,175.50 1002.00,171.50 L 1002.00,113.50 Q 1002.00,109.50 1006.00,109.50 Z" />
    <path class="key-bg part-1" d="M 1076.00,109.50 L 1134.00,109.50 Q 1138.00,109.50 1138.00,113.50 L 1138.00,171.50 Q 1138.00,175.50 1134.00,175.50 L 1076.00,175.50 Q 1072.00,175.50 1072.00,171.50 L 1072.00,113.50 Q 1072.00,109.50 1076.00,109.50 Z" />
    <path class="key-bg part-1" d="M 1146.00,92.00 L 1204.00,92.00 Q 1208.00,92.00 1208.00,96.00 L 1208.00,154.00 Q 1208.00,158.00 1204.00,158.00 L 1146.00,158.00 Q 1142.00,158.00 1142.00,154.00 L 1142.00,96.00 Q 1142.00,92.00 1146.00,92.00 Z" />
    <path class="key-bg part-1" d="M 1216.00,109.50 L 1274.00,109.50 Q 1278.00,109.50 1278.00,113.50 L 1278.00,171.50 Q 1278.00,175.50 1274.00,175.50 L 1216.00,175.50 Q 1212.00,175.50 1212.00,171.50 L 1212.00,113.50 Q 1212.00,109.50 1216.00,109.50 Z" />
    <path class="key-bg part-1" d="M 1286.00,144.50 L 1344.00,144.50 Q 1348.00,144.50 1348.00,148.50 L 1348.00,206.50 Q 1348.00,210.50 1344.00,210.50 L 1286.00,210.50 Q 1282.00,210.50 1282.00,206.50 L 1282.00,148.50 Q 1282.00,144.50 1286.00,144.50 Z" />
    <path class="key-bg part-1" d="M 1356.00,144.50 L 1414.00,144.50 Q 1418.00,144.50 1418.00,148.50 L 1418.00,206.50 Q 1418.00,210.50 1414.00,210.50 L 1356.00,210.50 Q 1352.00,210.50 1352.00,206.50 L 1352.00,148.50 Q 1352.00,144.50 1356.00,144.50 Z" />
    <path class="key-bg part-1" d="M 1426.00,144.50 L 1484.00,144.50 Q 1488.00,144.50 1488.00,148.50 L 1488.00,206.50 Q 1488.00,210.50 1484.00,210.50 L 1426.00,210.50 Q 1422.00,210.50 1422.00,206.50 L 1422.00,148.50 Q 1422.00,144.50 1426.00,144.50 Z" />
    <path class="key-bg part-0" d="M 26.00,214.50 L 84.00,214.50 Q 88.00,214.50 88.00,218.50 L 88.00,276.50 Q 88.00,280.50 84.00,280.50 L 26.00,280.50 Q 22.00,280.50 22.00,276.50 L 22.00,218.50 Q 22.00,214.50 26.00,214.50 Z" />
    <path class="key-bg part-0" d="M 96.00,214.50 L 154.00,214.50 Q 158.00,214.50 158.00,218.50 L 158.00,276.50 Q 158.00,280.50 154.00,280.50 L 96.00,280.50 Q 92.00,280.50 92.00,276.50 L 92.00,218.50 Q 92.00,214.50 96.00,214.50 Z" />
    <path class="key-bg part-0" d="M 166.00,214.50 L 224.00,214.50 Q 228.00,214.50 228.00,218.50 L 228.00,276.50 Q 228.00,280.50 224.00,280.50 L 166.00,280.50 Q 162.00,280.50 162.00,276.50 L 162.00,218.50 Q 162.00,214.50 166.00,214.50 Z" />
    <path class="key-bg part-0" d="M 236.00,179.50 L 294.00,179.50 Q 298.00,179.50 298.00,183.50 L 298.00,241.50 Q 298.00,245.50 294.00,245.50 L 236.00,245.50 Q 232.00,245.50 232.00,241.50 L 232.00,183.50 Q 232.00,179.50 236.00,179.50 Z" />
    <path class="key-bg part-0" d="M 306.00,162.00 L 364.00,162.00 Q 368.00,162.00 368.00,166.00 L 368.00,224.00 Q 368.00,228.00 364.00,228.00 L 306.00,228.00 Q 302.00,228.00 302.00,224.00 L 302.00,166.00 Q 302.00,162.00 306.00,162.00 Z" />
    <path class="key-bg part-0" d="M 376.00,179.50 L 434.00,179.50 Q 438.00,179.50 438.00,183.50 L 438.00,241.50 Q 438.00,245.50 434.00,245.50 L 376.00,245.50 Q 372.00,245.50 372.00,241.50 L 372.00,183.50 Q 372.00,179.50 376.00,179.50 Z" />
    <path class="key-bg part-0" d="M 446.00,179.50 L 504.00,179.50 Q 508.00,179.50 508.00,183.50 L 508.00,241.50 Q 508.00,245.50 504.00,245.50 L 446.00,245.50 Q 442.00,245.50 442.00,241.50 L 442.00,183.50 Q 442.00,179.50 446.00,179.50 Z" />
    <path class="key-bg part-1" d="M 1006.00,179.50 L 1064.00,179.50 Q 1068.00,179.50 1068.00,183.50 L 1068.00,241.50 Q 1068.00,245.50 1064.00,245.50 L 1006.00,245.50 Q 1002.00,245.50 1002.00,241.50 L 1002.00,183.50 Q 1002.00,179.50 1006.00,179.50 Z" />
    <path class="key-bg part-1" d="M 1076.00,179.50 L 1134.00,179.50 Q 1138.00,179.50 1138.00,183.50 L 1138.00,241.50 Q 1138.00,245.50 1134.00,245.50 L 1076.00,245.50 Q 1072.00,245.50 1072.00,241.50 L 1072.00,183.50 Q 1072.00,179.50 1076.00,179.50 Z" />
    <path class="key-bg part-1" d="M 1146.00,162.00 L 1204.00,162.00 Q 1208.00,162.00 1208.00,166.00 L 1208.00,224.00 Q 1208.00,228.00 1204.00,228.00 L 1146.00,228.00 Q 1142.00,228.00 1142.00,224.00 L 1142.00,166.00 Q 1142.00,162.00 1146.00,162.00 Z" />
    <path class="key-bg part-1" d="M 1216.00,179.50 L 1274.00,179.50 Q 1278.00,179.50 1278.00,183.50 L 1278.00,241.50 Q 1278.00,245.50 1274.00,245.50 L 1216.00,245.50 Q 1212.00,245.50 1212.00,241.50 L 1212.00,183.50 Q 1212.00,179.50 1216.00,179.50 Z" />
    <path class="key-bg part-1" d="M 1286.00,214.50 L 1344.00,214.50 Q 1348.00,214.50 1348.00,218.50 L 1348.00,276.50 Q 1348.00,280.50 1344.00,280.50 L 1286.00,280.50 Q 1282.00,280.50 1282.00,276.50 L 1282.00,218.50 Q 1282.00,214.50 1286.00,214.50 Z" />
    <path class="key-bg part-1" d="M 1356.00,214.50 L 1414.00,214.50 Q 1418.00,214.50 1418.00,218.50 L 1418.00,276.50 Q 1418.00,280.50 1414.00,280.50 L 1356.00,280.50 Q 1352.00,280.50 1352.00,276.50 L 1352.00,218.50 Q 1352.00,214.50 1356.00,214.50 Z" />
    <path class="key-bg part-1" d="M 1426.00,214.50 L 1484.00,214.50 Q 1488.00,214.50 1488.00,218.50 L 1488.00,276.50 Q 1488.00,280.50 1484.00,280.50 L 1426.00,280.50 Q 1422.00,280.50 1422.00,276.50 L 1422.00,218.50 Q 1422.00,214.50 1426.00,214.50 Z" />
    <path class="key-bg part-0" d="M 26.00,284.50 L 84.00,284.50 Q 88.00,284.50 88.00,288.50 L 88.00,346.50 Q 88.00,350.50 84.00,350.50 L 26.00,350.50 Q 22.00,350.50 22.00,346.50 L 22.00,288.50 Q 22.00,284.50 26.00,284.50 Z" />
    <path class="key-bg part-0" d="M 96.00,284.50 L 154.00,284.50 Q 158.00,284.50 158.00,288.50 L 158.00,346.50 Q 158.00,350.50 154.00,350.50 L 96.00,350.50 Q 92.00,350.50 92.00,346.50 L 92.00,288.50 Q 92.00,284.50 96.00,284.50 Z" />
    <path class="key-bg part-0" d="M 166.00,284.50 L 224.00,284.50 Q 228.00,284.50 228.00,288.50 L 228.00,346.50 Q 228.00,350.50 224.00,350.50 L 166.00,350.50 Q 162.00,350.50 162.00,346.50 L 162.00,288.50 Q 162.00,284.50 166.00,284.50 Z" />
    <path class="key-bg part-0" d="M 236.00,249.50 L 294.00,249.50 Q 298.00,249.50 298.00,253.50 L 298.00,311.50 Q 298.00,315.50 294.00,315.50 L 236.00,315.50 Q 232.00,315.50 232.00,311.50 L 232.00,253.50 Q 232.00,249.50 236.00,249.50 Z" />
    <path class="key-bg part-0" d="M 306.00,232.00 L 364.00,232.00 Q 368.00,232.00 368.00,236.00 L 368.00,294.00 Q 368.00,298.00 364.00,298.00 L 306.00,298.00 Q 302.00,298.00 302.00,294.00 L 302.00,236.00 Q 302.00,232.00 306.00,232.00 Z" />
    <path class="key-bg part-0" d="M 376.00,249.50 L 434.00,249.50 Q 438.00,249.50 438.00,253.50 L 438.00,311.50 Q 438.00,315.50 434.00,315.50 L 376.00,315.50 Q 372.00,315.50 372.00,311.50 L 372.00,253.50 Q 372.00,249.50 376.00,249.50 Z" />
    <path class="key-bg part-0" d="M 446.00,249.50 L 504.00,249.50 Q 508.00,249.50 508.00,253.50 L 508.00,311.50 Q 508.00,315.50 504.00,315.50 L 446.00,315.50 Q 442.00,315.50 442.00,311.50 L 442.00,253.50 Q 442.00,249.50 446.00,249.50 Z" />
    <path class="key-bg part-1" d="M 1006.00,249.50 L 1064.00,249.50 Q 1068.00,249.50 1068.00,253.50 L 1068.00,311.50 Q 1068.00,315.50 1064.00,315.50 L 1006.00,315.50 Q 1002.00,315.50 1002.00,311.50 L 1002.00,253.50 Q 1002.00,249.50 1006.00,249.50 Z" />
    <path class="key-bg part-1" d="M 1076.00,249.50 L 1134.00,249.50 Q 1138.00,249.50 1138.00,253.50 L 1138.00,311.50 Q 1138.00,315.50 1134.00,315.50 L 1076.00,315.50 Q 1072.00,315.50 1072.00,311.50 L 1072.00,253.50 Q 1072.00,249.50 1076.00,249.50 Z" />
    <path class="key-bg part-1" d="M 1146.00,232.00 L 1204.00,232.00 Q 1208.00,232.00 1208.00,236.00 L 1208.00,294.00 Q 1208.00,298.00 1204.00,298.00 L 1146.00,298.00 Q 1142.00,298.00 1142.00,294.00 L 1142.00,236.00 Q 1142.00,232.00 1146.00,232.00 Z" />
    <path class="key-bg part-1" d="M 1216.00,249.50 L 1274.00,249.50 Q 1278.00,249.50 1278.00,253.50 L 1278.00,311.50 Q 1278.00,315.50 1274.00,315.50 L 1216.00,315.50 Q 1212.00,315.50 1212.00,311.50 L 1212.00,253.50 Q 1212.00,249.50 1216.00,249.50 Z" />
    <path class="key-bg part-1" d="M 1286.00,284.50 L 1344.00,284.50 Q 1348.00,284.50 1348.00,288.50 L 1348.00,346.50 Q 1348.00,350.50 1344.00,350.50 L 1286.00,350.50 Q 1282.00,350.50 1282.00,346.50 L 1282.00,288.50 Q 1282.00,284.50 1286.00,284.50 Z" />
    <path class="key-bg part-1" d="M 1356.00,284.50 L 1414.00,284.50 Q 1418.00,284.50 1418.00,288.50 L 1418.00,346.50 Q 1418.00,350.50 1414.00,350.50 L 1356.00,350.50 Q 1352.00,350.50 1352.00,346.50 L 1352.00,288.50 Q 1352.00,284.50 1356.00,284.50 Z" />
    <path class="key-bg part-1" d="M 1426.00,284.50 L 1484.00,284.50 Q 1488.00,284.50 1488.00,288.50 L 1488.00,346.50 Q 1488.00,350.50 1484.00,350.50 L 1426.00,350.50 Q 1422.00,350.50 1422.00,346.50 L 1422.00,288.50 Q 1422.00,284.50 1426.00,284.50 Z" />
    <path class="key-bg part-0" d="M 26.00,354.50 L 84.00,354.50 Q 88.00,354.50 88.00,358.50 L 88.00,416.50 Q 88.00,420.50 84.00,420.50 L 26.00,420.50 Q 22.00,420.50 22.00,416.50 L 22.00,358.50 Q 22.00,354.50 26.00,354.50 Z" />
    <path class="key-bg part-0" d="M 96.00,354.50 L 154.00,354.50 Q 158.00,354.50 158.00,358.50 L 158.00,416.50 Q 158.00,420.50 154.00,420.50 L 96.00,420.50 Q 92.00,420.50 92.00,416.50 L 92.00,358.50 Q 92.00,354.50 96.00,354.50 Z" />
    <path class="key-bg part-0" d="M 166.00,354.50 L 224.00,354.50 Q 228.00,354.50 228.00,358.50 L 228.00,416.50 Q 228.00,420.50 224.00,420.50 L 166.00,420.50 Q 162.00,420.50 162.00,416.50 L 162.00,358.50 Q 162.00,354.50 166.00,354.50 Z" />
    <path class="key-bg part-0" d="M 236.00,319.50 L 294.00,319.50 Q 298.00,319.50 298.00,323.50 L 298.00,381.50 Q 298.00,385.50 294.00,385.50 L 236.00,385.50 Q 232.00,385.50 232.00,381.50 L 232.00,323.50 Q 232.00,319.50 236.00,319.50 Z" />
    <path class="key-bg part-0" d="M 306.00,302.00 L 364.00,302.00 Q 368.00,302.00 368.00,306.00 L 368.00,364.00 Q 368.00,368.00 364.00,368.00 L 306.00,368.00 Q 302.00,368.00 302.00,364.00 L 302.00,306.00 Q 302.00,302.00 306.00,302.00 Z" />
    <path class="key-bg part-0" d="M 376.00,319.50 L 434.00,319.50 Q 438.00,319.50 438.00,323.50 L 438.00,381.50 Q 438.00,385.50 434.00,385.50 L 376.00,385.50 Q 372.00,385.50 372.00,381.50 L 372.00,323.50 Q 372.00,319.50 376.00,319.50 Z" />
    <path class="key-bg part-0" d="M 446.00,319.50 L 504.00,319.50 Q 508.00,319.50 508.00,323.50 L 508.00,381.50 Q 508.00,385.50 504.00,385.50 L 446.00,385.50 Q 442.00,385.50 442.00,381.50 L 442.00,323.50 Q 442.00,319.50 446.00,319.50 Z" />
    <path class="key-bg part-1" d="M 1006.00,319.50 L 1064.00,319.50 Q 1068.00,319.50 1068.00,323.50 L 1068.00,381.50 Q 1068.00,385.50 1064.00,385.50 L 1006.00,385.50 Q 1002.00,385.50 1002.00,381.50 L 1002.00,323.50 Q 1002.00,319.50 1006.00,319.50 Z" />
    <path class="key-bg part-1" d="M 1076.00,319.50 L 1134.00,319.50 Q 1138.00,319.50 1138.00,323.50 L 1138.00,381.50 Q 1138.00,385.50 1134.00,385.50 L 1076.00,385.50 Q 1072.00,385.50 1072.00,381.50 L 1072.00,323.50 Q 1072.00,319.50 1076.00,319.50 Z" />
    <path class="key-bg part-1" d="M 1146.00,302.00 L 1204.00,302.00 Q 1208.00,302.00 1208.00,306.00 L 1208.00,364.00 Q 1208.00,368.00 1204.00,368.00 L 1146.00,368.00 Q 1142.00,368.00 1142.00,364.00 L 1142.00,306.00 Q 1142.00,302.00 1146.00,302.00 Z" />
    <path class="key-bg part-1" d="M 1216.00,319.50 L 1274.00,319.50 Q 1278.00,319.50 1278.00,323.50 L 1278.00,381.50 Q 1278.00,385.50 1274.00,385.50 L 1216.00,385.50 Q 1212.00,385.50 1212.00,381.50 L 1212.00,323.50 Q 1212.00,319.50 1216.00,319.50 Z" />
    <path class="key-bg part-1" d="M 1286.00,354.50 L 1344.00,354.50 Q 1348.00,354.50 1348.00,358.50 L 1348.00,416.50 Q 1348.00,420.50 1344.00,420.50 L 1286.00,420.50 Q 1282.00,420.50 1282.00,416.50 L 1282.00,358.50 Q 1282.00,354.50 1286.00,354.50 Z" />
    <path class="key-bg part-1" d="M 1356.00,354.50 L 1414.00,354.50 Q 1418.00,354.50 1418.00,358.50 L 1418.00,416.50 Q 1418.00,420.50 1414.00,420.50 L 1356.00,420.50 Q 1352.00,420.50 1352.00,416.50 L 1352.00,358.50 Q 1352.00,354.50 1356.00,354.50 Z" />
    <path class="key-bg part-1" d="M 1426.00,354.50 L 1484.00,354.50 Q 1488.00,354.50 1488.00,358.50 L 1488.00,416.50 Q 1488.00,420.50 1484.00,420.50 L 1426.00,420.50 Q 1422.00,420.50 1422.00,416.50 L 1422.00,358.50 Q 1422.00,354.50 1426.00,354.50 Z" />
    <path class="key-bg part-0" d="M 236.00,389.50 L 294.00,389.50 Q 298.00,389.50 298.00,393.50 L 298.00,451.50 Q 298.00,455.50 294.00,455.50 L 236.00,455.50 Q 232.00,455.50 232.00,451.50 L 232.00,393.50 Q 232.00,389.50 236.00,389.50 Z" />
    <path class="key-bg part-0" d="M 306.00,372.00 L 364.00,372.00 Q 368.00,372.00 368.00,376.00 L 368.00,434.00 Q 368.00,438.00 364.00,438.00 L 306.00,438.00 Q 302.00,438.00 302.00,434.00 L 302.00,376.00 Q 302.00,372.00 306.00,372.00 Z" />
    <path class="key-bg part-0" d="M 376.00,459.50 L 434.00,459.50 Q 438.00,459.50 438.00,463.50 L 438.00,521.50 Q 438.00,525.50 434.00,525.50 L 376.00,525.50 Q 372.00,525.50 372.00,521.50 L 372.00,463.50 Q 372.00,459.50 376.00,459.50 Z" />
    <path class="key-bg part-0" d="M 463.50,477.00 L 521.50,477.00 Q 525.50,477.00 525.50,481.00 L 525.50,539.00 Q 525.50,543.00 521.50,543.00 L 463.50,543.00 Q 459.50,543.00 459.50,539.00 L 459.50,481.00 Q 459.50,477.00 463.50,477.00 Z" />
    <path class="key-bg part-1" d="M 988.50,477.00 L 1046.50,477.00 Q 1050.50,477.00 1050.50,481.00 L 1050.50,539.00 Q 1050.50,543.00 1046.50,543.00 L 988.50,543.00 Q 984.50,543.00 984.50,539.00 L 984.50,481.00 Q 984.50,477.00 988.50,477.00 Z" />
    <path class="key-bg part-1" d="M 1076.00,459.50 L 1134.00,459.50 Q 1138.00,459.50 1138.00,463.50 L 1138.00,521.50 Q 1138.00,525.50 1134.00,525.50 L 1076.00,525.50 Q 1072.00,525.50 1072.00,521.50 L 1072.00,463.50 Q 1072.00,459.50 1076.00,459.50 Z" />
    <path class="key-bg part-1" d="M 1146.00,372.00 L 1204.00,372.00 Q 1208.00,372.00 1208.00,376.00 L 1208.00,434.00 Q 1208.00,438.00 1204.00,438.00 L 1146.00,438.00 Q 1142.00,438.00 1142.00,434.00 L 1142.00,376.00 Q 1142.00,372.00 1146.00,372.00 Z" />
    <path class="key-bg part-1" d="M 1216.00,389.50 L 1274.00,389.50 Q 1278.00,389.50 1278.00,393.50 L 1278.00,451.50 Q 1278.00,455.50 1274.00,455.50 L 1216.00,455.50 Q 1212.00,455.50 1212.00,451.50 L 1212.00,393.50 Q 1212.00,389.50 1216.00,389.50 Z" />
    <path class="key-bg part-0" d="M 551.00,634.50 L 609.00,634.50 Q 613.00,634.50 613.00,638.50 L 613.00,696.50 Q 613.00,700.50 609.00,700.50 L 551.00,700.50 Q 547.00,700.50 547.00,696.50 L 547.00,638.50 Q 547.00,634.50 551.00,634.50 Z" />
    <path class="key-bg part-0" d="M 621.00,582.00 L 679.00,582.00 Q 683.00,582.00 683.00,586.00 L 683.00,644.00 Q 683.00,648.00 679.00,648.00 L 621.00,648.00 Q 617.00,648.00 617.00,644.00 L 617.00,586.00 Q 617.00,582.00 621.00,582.00 Z" />
    <path class="key-bg part-0" d="M 481.00,582.00 L 539.00,582.00 Q 543.00,582.00 543.00,586.00 L 543.00,644.00 Q 543.00,648.00 539.00,648.00 L 481.00,648.00 Q 477.00,648.00 477.00,644.00 L 477.00,586.00 Q 477.00,582.00 481.00,582.00 Z" />
    <path class="key-bg part-0" d="M 551.00,529.50 L 609.00,529.50 Q 613.00,529.50 613.00,533.50 L 613.00,591.50 Q 613.00,595.50 609.00,595.50 L 551.00,595.50 Q 547.00,595.50 547.00,591.50 L 547.00,533.50 Q 547.00,529.50 551.00,529.50 Z" />
    <path class="key-bg part-1" d="M 901.00,529.50 L 959.00,529.50 Q 963.00,529.50 963.00,533.50 L 963.00,591.50 Q 963.00,595.50 959.00,595.50 L 901.00,595.50 Q 897.00,595.50 897.00,591.50 L 897.00,533.50 Q 897.00,529.50 901.00,529.50 Z" />
    <path class="key-bg part-1" d="M 971.00,582.00 L 1029.00,582.00 Q 1033.00,582.00 1033.00,586.00 L 1033.00,644.00 Q 1033.00,648.00 1029.00,648.00 L 971.00,648.00 Q 967.00,648.00 967.00,644.00 L 967.00,586.00 Q 967.00,582.00 971.00,582.00 Z" />
    <path class="key-bg part-1" d="M 831.00,582.00 L 889.00,582.00 Q 893.00,582.00 893.00,586.00 L 893.00,644.00 Q 893.00,648.00 889.00,648.00 L 831.00,648.00 Q 827.00,648.00 827.00,644.00 L 827.00,586.00 Q 827.00,582.00 831.00,582.00 Z" />
    <path class="key-bg part-1" d="M 901.00,634.50 L 959.00,634.50 Q 963.00,634.50 963.00,638.50 L 963.00,696.50 Q 963.00,700.50 959.00,700.50 L 901.00,700.50 Q 897.00,700.50 897.00,696.50 L 897.00,638.50 Q 897.00,634.50 901.00,634.50 Z" />
  </g>
  <g>
    <text class="key-index" x="55.00" y="95.86" font-size="26">0</text>
    <text class="key-part part-0" x="55.00" y="123.14" font-size="18">left</text>
    <text class="key-index" x="125.00" y="95.86" font-size="26">1</text>
    <text class="key-part part-0" x="125.00" y="123.14" font-size="18">left</text>
    <text class="key-index" x="195.00" y="95.86" font-size="26">2</text>
    <text class="key-part part-0" x="195.00" y="123.14" font-size="18">left</text>
    <text class="key-index" x="265.00" y="60.86" font-size="26">3</text>
    <text class="key-part part-0" x="265.00" y="88.14" font-size="18">left</text>
    <text class="key-index" x="335.00" y="43.36" font-size="26">4</text>
    <text class="key-part part-0" x="335.00" y="70.64" font-size="18">left</text>
    <text class="key-index" x="405.00" y="60.86" font-size="26">5</text>
    <text class="key-part part-0" x="405.00" y="88.14" font-size="18">left</text>
    <text class="key-index" x="475.00" y="60.86" font-size="26">6</text>
    <text class="key-part part-0" x="475.00" y="88.14" font-size="18">left</text>
    <text class="key-index" x="1035.00" y="60.86" font-size="26">7</text>
    <text class="key-part part-1" x="1035.00" y="88.14" font-size="18">right</text>
    <text class="key-index" x="1105.00" y="60.86" font-size="26">8</text>
    <text class="key-part part-1" x="1105.00" y="88.14" font-size="18">right</text>
    <text class="key-index" x="1175.00" y="43.36" font-size="26">9</text>
    <text class="key-part part-1" x="1175.00" y="70.64" font-size="18">right</text>
    <text class="key-index" x="1245.00" y="60.86" font-size="26">10</text>
    <text class="key-part part-1" x="1245.00" y="88.14" font-size="18">right</text>
    <text class="key-index" x="1315.00" y="95.86" font-size="26">11</text>
    <text class="key-part part-1" x="1315.00" y="123.14" font-size="18">right</text>
    <text class="key-index" x="1385.00" y="95.86" font-size="26">12</text>
    <text class="key-part part-1" x="1385.00" y="123.14" font-size="18">right</text>
    <text class="key-index" x="1455.00" y="95.86" font-size="26">13</text>
    <text class="key-part part-1" x="1455.00" y="123.14" font-size="18">right</text>
    <text class="key-index" x="55.00" y="165.86" font-size="26">14</text>
    <text class="key-part part-0" x="55.00" y="193.14" font-size="18">left</text>
    <text class="key-index" x="125.00" y="165.86" font-size="26">15</text>
    <text class="key-part part-0" x="125.00" y="193.14" font-size="18">left</text>
    <text class="key-index" x="195.00" y="165.86" font-size="26">16</text>
    <text class="key-part part-0" x="195.00" y="193.14" font-size="18">left</text>
    <text class="key-index" x="265.00" y="130.86" font-size="26">17</text>
    <text class="key-part part-0" x="265.00" y="158.14" font-size="18">left</text>
    <text class="key-index" x="335.00" y="113.36" font-size="26">18</text>
    <text class="key-part part-0" x="335.00" y="140.64" font-size="18">left</text>
    <text class="key-index" x="405.00" y="130.86" font-size="26">19</text>
    <text class="key-part part-0" x="405.00" y="158.14" font-size="18">left</text>
    <text class="key-index" x="475.00" y="130.86" font-size="26">20</text>
    <text class="key-part part-0" x="475.00" y="158.14" font-size="18">left</text>
    <text class="key-index" x="1035.00" y="130.86" font-size="26">21</text>
    <text class="key-part part-1" x="1035.00" y="158.14" font-size="18">right</text>
    <text class="key-index" x="1105.00" y="130.86" font-size="26">22</text>
    <text class="key-part part-1" x="1105.00" y="158.14" font-size="18">right</text>
    <text class="key-index" x="1175.00" y="113.36" font-size="26">23</text>
    <text class="key-part part-1" x="1175.00" y="140.64" font-size="18">right</text>
    <text class="key-index" x="1245.00" y="130.86" font-size="26">24</text>
    <text class="key-part part-1" x="1245.00" y="158.14" font-size="18">right</text>
    <text class="key-index" x="1315.00" y="165.86" font-size="26">25</text>
    <text class="key-part part-1" x="1315.00" y="193.14" font-size="18">right</text>
    <text class="key-index" x="1385.00" y="165.86" font-size="26">26</text>
    <text class="key-part part-1" x="1385.00" y="193.14" font-size="18">right</text>
    <text class="key-index" x="1455.00" y="165.86" font-size="26">27</text>
    <text class="key-part part-1" x="1455.00" y="193.14" font-size="18">right</text>
    <text class="key-index" x="55.00" y="235.86" font-size="26">28</text>
    <text class="key-part part-0" x="55.00" y="263.14" font-size="18">left</text>
    <text class="key-index" x="125.00" y="235.86" font-size="26">29</text>
    <text class="key-part part-0" x="125.00" y="263.14" font-size="18">left</text>
    <text class="key-index" x="195.00" y="235.86" font-size="26">30</text>
    <text class="key-part part-0" x="195.00" y="263.14" font-size="18">left</text>
    <text class="key-index" x="265.00" y="200.86" font-size="26">31</text>
    <text class="key-part part-0" x="265.00" y="228.14" font-size="18">left</text>
    <text class="key-index" x="335.00" y="183.36" font-size="26">32</text>
    <text class="key-part part-0" x="335.00" y="210.64" font-size="18">left</text>
    <text class="key-index" x="405.00" y="200.86" font-size="26">33</text>
    <text class="key-part part-0" x="405.00" y="228.14" font-size="18">left</text>
    <text class="key-index" x="475.00" y="200.86" font-size="26">34</text>
    <text class="key-part part-0" x="475.00" y="228.14" font-size="18">left</text>
    <text class="key-index" x="1035.00" y="200.86" font-size="26">35</text>
    <text class="key-part part-1" x="1035.00" y="228.14" font-size="18">right</text>
    <text class="key-index" x="1105.00" y="200.86" font-size="26">36</text>
    <text class="key-part part-1" x="1105.00" y="228.14" font-size="18">right</text>
    <text class="key-index" x="1175.00" y="183.36" font-size="26">37</text>
    <text class="key-part part-1" x="1175.00" y="210.64" font-size="18">right</text>
    <text class="key-index" x="1245.00" y="200.86" font-size="26">38</text>
    <text class="key-part part-1" x="1245.00" y="228.14" font-size="18">right</text>
    <text class="key-index" x="1315.00" y="235.86" font-size="26">39</text>
    <text class="key-part part-1" x="1315.00" y="263.14" font-size="18">right</text>
    <text class="key-index" x="1385.00" y="235.86" font-size="26">40</text>
    <text class="key-part part-1" x="1385.00" y="263.14" font-size="18">right</text>
    <text class="key-index" x="1455.00" y="235.86" font-size="26">41</text>
    <text class="key-part part-1" x="1455.00" y="263.14" font-size="18">right</text>
    <text class="key-index" x="55.00" y="305.86" font-size="26">42</text>
    <text class="key-part part-0" x="55.00" y="333.14" font-size="18">left</text>
    <text class="key-index" x="125.00" y="305.86" font-size="26">43</text>
    <text class="key-part part-0" x="125.00" y="333.14" font-size="18">left</text>
    <text class="key-index" x="195.00" y="305.86" font-size="26">44</text>
    <text class="key-part part-0" x="195.00" y="333.14" font-size="18">left</text>
    <text class="key-index" x="265.00" y="270.86" font-size="26">45</text>
    <text class="key-part part-0" x="265.00" y="298.14" font-size="18">left</text>
    <text class="key-index" x="335.00" y="253.36" font-size="26">46</text>
    <text class="key-part part-0" x="335.00" y="280.64" font-size="18">left</text>
    <text class="key-index" x="405.00" y="270.86" font-size="26">47</text>
    <text class="key-part part-0" x="405.00" y="298.14" font-size="18">left</text>
    <text class="key-index" x="475.00" y="270.86" font-size="26">48</text>
    <text class="key-part part-0" x="475.00" y="298.14" font-size="18">left</text>
    <text class="key-index" x="1035.00" y="270.86" font-size="26">49</text>
    <text class="key-part part-1" x="1035.00" y="298.14" font-size="18">right</text>
    <text class="key-index" x="1105.00" y="270.86" font-size="26">50</text>
    <text class="key-part part-1" x="1105.00" y="298.14" font-size="18">right</text>
    <text class="key-index" x="1175.00" y="253.36" font-size="26">51</text>
    <text class="key-part part-1" x="1175.00" y="280.64" font-size="18">right</text>
    <text class="key-index" x="1245.00" y="270.86" font-size="26">52</text>
    <text class="key-part part-1" x="1245.00" y="298.14" font-size="18">right</text>
    <text class="key-index" x="1315.00" y="305.86" font-size="26">53</text>
    <text class="key-part part-1" x="1315.00" y="333.14" font-size="18">right</text>
    <text class="key-index" x="1385.00" y="305.86" font-size="26">54</text>
    <text class="key-part part-1" x="1385.00" y="333.14" font-size="18">right</text>
    <text class="key-index" x="1455.00" y="305.86" font-size="26">55</text>
    <text class="key-part part-1" x="1455.00" y="333.14" font-size="18">right</text>
    <text class="key-index" x="55.00" y="375.86" font-size="26">56</text>
    <text class="key-part part-0" x="55.00" y="403.14" font-size="18">left</text>
    <text class="key-index" x="125.00" y="375.86" font-size="26">57</text>
    <text class="key-part part-0" x="125.00" y="403.14" font-size="18">left</text>
    <text class="key-index" x="195.00" y="375.86" font-size="26">58</text>
    <text class="key-part part-0" x="195.00" y="403.14" font-size="18">left</text>
    <text class="key-index" x="265.00" y="340.86" font-size="26">59</text>
    <text class="key-part part-0" x="265.00" y="368.14" font-size="18">left</text>
    <text class="key-index" x="335.00" y="323.36" font-size="26">60</text>
    <text class="key-part part-0" x="335.00" y="350.64" font-size="18">left</text>
    <text class="key-index" x="405.00" y="340.86" font-size="26">61</text>
    <text class="key-part part-0" x="405.00" y="368.14" font-size="18">left</text>
    <text class="key-index" x="475.00" y="340.86" font-size="26">62</text>
    <text class="key-part part-0" x="475.00" y="368.14" font-size="18">left</text>
    <text class="key-index" x="1035.00" y="340.86" font-size="26">63</text>
    <text class="key-part part-1" x="1035.00" y="368.14" font-size="18">right</text>
    <text class="key-index" x="1105.00" y="340.86" font-size="26">64</text>
    <text class="key-part part-1" x="1105.00" y="368.14" font-size="18">right</text>
    <text class="key-index" x="1175.00" y="323.36" font-size="26">65</text>
    <text class="key-part part-1" x="1175.00" y="350.64" font-size="18">right</text>
    <text class="key-index" x="1245.00" y="340.86" font-size="26">66</text>
    <text class="key-part part-1" x="1245.00" y="368.14" font-size="18">right</text>
    <text class="key-index" x="1315.00" y="375.86" font-size="26">67</text>
    <text class="key-part part-1" x="1315.00" y="403.14" font-size="18">right</text>
    <text class="key-index" x="1385.00" y="375.86" font-size="26">68</text>
    <text class="key-part part-1" x="1385.00" y="403.14" font-size="18">right</text>
    <text class="key-index" x="1455.00" y="375.86" font-size="26">69</text>
    <text class="key-part part-1" x="1455.00" y="403.14" font-size="18">right</text>
    <text class="key-index" x="265.00" y="410.86" font-size="26">70</text>
    <text class="key-part part-0" x="265.00" y="438.14" font-size="18">left</text>
    <text class="key-index" x="335.00" y="393.36" font-size="26">71</text>
    <text class="key-part part-0" x="335.00" y="420.64" font-size="18">left</text>
    <text class="key-index" x="405.00" y="480.86" font-size="26">72</text>
    <text class="key-part part-0" x="405.00" y="508.14" font-size="18">left</text>
    <text class="key-index" x="492.50" y="498.36" font-size="26">73</text>
    <text class="key-part part-0" x="492.50" y="525.64" font-size="18">left</text>
    <text class="key-index" x="1017.50" y="498.36" font-size="26">74</text>
    <text class="key-part part-1" x="1017.50" y="525.64" font-size="18">right</text>
    <text class="key-index" x="1105.00" y="480.86" font-size="26">75</text>
    <text class="key-part part-1" x="1105.00" y="508.14" font-size="18">right</text>
    <text class="key-index" x="1175.00" y="393.36" font-size="26">76</text>
    <text class="key-part part-1" x="1175.00" y="420.64" font-size="18">right</text>
    <text class="key-index" x="1245.00" y="410.86" font-size="26">77</text>
    <text class="key-part part-1" x="1245.00" y="438.14" font-size="18">right</text>
    <text class="key-index" x="580.00" y="655.86" font-size="26">78</text>
    <text class="key-part part-0" x="580.00" y="683.14" font-size="18">left</text>
    <text class="key-index" x="650.00" y="603.36" font-size="26">79</text>
    <text class="key-part part-0" x="650.00" y="630.64" font-size="18">left</text>
    <text class="key-index" x="510.00" y="603.36" font-size="26">80</text>
    <text class="key-part part-0" x="510.00" y="630.64" font-size="18">left</text>
    <text class="key-index" x="580.00" y="550.86" font-size="26">81</text>
    <text class="key-part part-0" x="580.00" y="578.14" font-size="18">left</text>
    <text class="key-index" x="930.00" y="550.86" font-size="26">82</text>
    <text class="key-part part-1" x="930.00" y="578.14" font-size="18">right</text>
    <text class="key-index" x="1000.00" y="603.36" font-size="26">83</text>
    <text class="key-part part-1" x="1000.00" y="630.64" font-size="18">right</text>
    <text class="key-index" x="860.00" y="603.36" font-size="26">84</text>
    <text class="key-part part-1" x="860.00" y="630.64" font-size="18">right</text>
    <text class="key-index" x="930.00" y="655.86" font-size="26">85</text>
    <text class="key-part part-1" x="930.00" y="683.14" font-size="18">right</text>
  </g>
</svg>
